<?xml version="1.0" encoding="utf-8"?>
<!-- Generator: Adobe Illustrator 24.3.0, SVG Export Plug-In . SVG Version: 6.00 Build 0)  -->
<svg version="1.1" id="Layer_1" xmlns="http://www.w3.org/2000/svg" xmlns:xlink="http://www.w3.org/1999/xlink" x="0px" y="0px"
	 viewBox="0 0 1417 834.24" style="enable-background:new 0 0 1417 834.24;" xml:space="preserve">
<style type="text/css">
	.st0{fill:#FFFFFF;}
	.st1{opacity:0.74;fill:url(#SVGID_1_);enable-background:new    ;}
	.st2{fill:#F5F6F8;}
</style>
<g>
	<path class="st0" d="M1394.46,834.24H22.54C10.09,834.24,0,824.15,0,811.7V22.54C0,10.09,10.09,0,22.54,0h1371.92
		c12.45,0,22.54,10.09,22.54,22.54V811.7C1417,824.15,1406.91,834.24,1394.46,834.24z"/>
</g>
<linearGradient id="SVGID_1_" gradientUnits="userSpaceOnUse" x1="0" y1="41.1428" x2="1417.0018" y2="41.1428">
	<stop  offset="0" style="stop-color:#776EFA"/>
	<stop  offset="1" style="stop-color:#CE44FA"/>
</linearGradient>
<path class="st1" d="M1417,82.29H0V22.54C0,10.09,10.09,0,22.54,0h1371.92c12.45,0,22.54,10.09,22.54,22.54V82.29z"/>
<path class="st2" d="M1294.85,731.57H759.92c-8.33,0-15.08-6.75-15.08-15.08V199.31c0-8.33,6.75-15.08,15.08-15.08h534.93
	c8.33,0,15.08,6.75,15.08,15.08v517.17C1309.93,724.82,1303.18,731.57,1294.85,731.57z"/>
<g>
	<g>
		<polygon class="st0" points="85.78,35.3 57.91,44.44 57.91,32.74 85.78,23.6 		"/>
	</g>
	<g>
		<polygon class="st0" points="85.78,50.99 57.91,60.13 57.91,48.43 85.78,39.29 		"/>
	</g>
</g>
<path class="st2" d="M203.49,656.46h-87.55c-4.9,0-8.87-3.97-8.87-8.87v-20.75c0-4.9,3.97-8.87,8.87-8.87h87.55
	c4.9,0,8.87,3.97,8.87,8.87v20.75C212.36,652.49,208.39,656.46,203.49,656.46z"/>
<path class="st2" d="M336.3,656.46h-87.55c-4.9,0-8.87-3.97-8.87-8.87v-20.75c0-4.9,3.97-8.87,8.87-8.87h87.55
	c4.9,0,8.87,3.97,8.87,8.87v20.75C345.17,652.49,341.2,656.46,336.3,656.46z"/>
<path class="st2" d="M280.53,306.64H119.38c-6.63,0-12-5.37-12-12v-14.49c0-6.63,5.37-12,12-12h161.14c6.63,0,12,5.37,12,12v14.49
	C292.53,301.27,287.16,306.64,280.53,306.64z"/>
<path class="st2" d="M527.23,417.12H119.44c-6.66,0-12.06-5.4-12.06-12.06v-48.6c0-6.66,5.4-12.06,12.06-12.06h407.79
	c6.66,0,12.06,5.4,12.06,12.06v48.6C539.29,411.72,533.89,417.12,527.23,417.12z"/>
<path class="st2" d="M527.51,580.22H119.16c-6.5,0-11.78-5.27-11.78-11.78V466.66c0-6.5,5.27-11.78,11.78-11.78h408.35
	c6.5,0,11.78,5.27,11.78,11.78v101.78C539.29,574.94,534.02,580.22,527.51,580.22z"/>
</svg>
